<?xml version="1.0" encoding="UTF-8" standalone="no"?>
<!-- Created with Inkscape (http://www.inkscape.org/) -->

<svg
   xmlns:dc="http://purl.org/dc/elements/1.1/"
   xmlns:cc="http://creativecommons.org/ns#"
   xmlns:rdf="http://www.w3.org/1999/02/22-rdf-syntax-ns#"
   xmlns:svg="http://www.w3.org/2000/svg"
   xmlns="http://www.w3.org/2000/svg"
   xmlns:xlink="http://www.w3.org/1999/xlink"
   xmlns:sodipodi="http://sodipodi.sourceforge.net/DTD/sodipodi-0.dtd"
   xmlns:inkscape="http://www.inkscape.org/namespaces/inkscape"
   width="121.82234mm"
   height="121.82235mm"
   viewBox="0 0 121.82234 121.82235"
   version="1.1"
   id="svg8"
   inkscape:version="0.92.4 (unknown)"
   sodipodi:docname="operation.svg">
  <defs
     id="defs2">
    <linearGradient
       inkscape:collect="always"
       id="linearGradient6838">
      <stop
         style="stop-color:#cecece;stop-opacity:1"
         offset="0"
         id="stop6834" />
      <stop
         style="stop-color:#adadad;stop-opacity:1"
         offset="1"
         id="stop6836" />
    </linearGradient>
    <linearGradient
       inkscape:collect="always"
       id="linearGradient6828">
      <stop
         style="stop-color:#ababab;stop-opacity:1;"
         offset="0"
         id="stop6824" />
      <stop
         style="stop-color:#e3e3e3;stop-opacity:1"
         offset="1"
         id="stop6826" />
    </linearGradient>
    <linearGradient
       inkscape:collect="always"
       id="linearGradient6820">
      <stop
         style="stop-color:#202020;stop-opacity:1"
         offset="0"
         id="stop6816" />
      <stop
         style="stop-color:#757575;stop-opacity:1"
         offset="1"
         id="stop6818" />
    </linearGradient>
    <radialGradient
       inkscape:collect="always"
       xlink:href="#linearGradient6820"
       id="radialGradient6822"
       cx="396.85059"
       cy="561.25977"
       fx="396.85059"
       fy="561.25977"
       r="157.23849"
       gradientTransform="matrix(0.23602717,0,0,0.23602571,11.332528,16.028243)"
       gradientUnits="userSpaceOnUse" />
    <radialGradient
       inkscape:collect="always"
       xlink:href="#linearGradient6828"
       id="radialGradient6830"
       cx="378.66699"
       cy="647.62598"
       fx="378.66699"
       fy="647.62598"
       r="201.23734"
       gradientUnits="userSpaceOnUse"
       gradientTransform="matrix(0.26458332,0,0,0.26458332,4.8110295,-22.851037)" />
    <radialGradient
       inkscape:collect="always"
       xlink:href="#linearGradient6838"
       id="radialGradient6840"
       cx="-3.4253055e-05"
       cy="4.6313264e-05"
       fx="-3.4253055e-05"
       fy="4.6313264e-05"
       r="8.1488848"
       gradientUnits="userSpaceOnUse"
       gradientTransform="matrix(5.1861704,0,0,5.1861704,105.00018,148.49977)" />
    <radialGradient
       inkscape:collect="always"
       xlink:href="#linearGradient6828"
       id="radialGradient6830-5"
       cx="378.66699"
       cy="647.62598"
       fx="378.66699"
       fy="647.62598"
       r="201.23734"
       gradientUnits="userSpaceOnUse"
       gradientTransform="translate(-177.42967,-446.38866)" />
    <filter
       inkscape:collect="always"
       style="color-interpolation-filters:sRGB"
       id="filter7006"
       x="-0.073200015"
       width="1.1464"
       y="-0.073199985"
       height="1.1464">
      <feGaussianBlur
         inkscape:collect="always"
         stdDeviation="3.3701613"
         id="feGaussianBlur7008" />
    </filter>
  </defs>
  <sodipodi:namedview
     id="base"
     pagecolor="#ffffff"
     bordercolor="#666666"
     borderopacity="1.0"
     inkscape:pageopacity="0.0"
     inkscape:pageshadow="2"
     inkscape:zoom="0.98994949"
     inkscape:cx="188.81534"
     inkscape:cy="160.84268"
     inkscape:document-units="mm"
     inkscape:current-layer="layer1"
     showgrid="false"
     inkscape:window-width="1855"
     inkscape:window-height="1056"
     inkscape:window-x="65"
     inkscape:window-y="24"
     inkscape:window-maximized="1"
     inkscape:snap-global="false"
     fit-margin-top="0"
     fit-margin-left="0"
     fit-margin-right="0"
     fit-margin-bottom="0" />
  <metadata
     id="metadata5">
    <rdf:RDF>
      <cc:Work
         rdf:about="">
        <dc:format>image/svg+xml</dc:format>
        <dc:type
           rdf:resource="http://purl.org/dc/dcmitype/StillImage" />
        <dc:title></dc:title>
      </cc:Work>
    </rdf:RDF>
  </metadata>
  <g
     inkscape:label="Calque 1"
     inkscape:groupmode="layer"
     id="layer1"
     transform="translate(-44.088821,-87.58882)">
    <path
       inkscape:connector-curvature="0"
       id="path6767-3"
       d="m 102.13902,93.898125 -3.400713,2.771719 0.01233,0.809154 0.482598,3.618942 -12.056356,3.2302 -1.390954,-3.37496 -0.394122,-0.70728 -4.331576,-0.699777 -6.075366,3.507417 -1.559326,4.10102 0.415033,0.69493 2.227455,2.89237 -8.825635,8.82617 -2.892366,-2.22798 -0.694939,-0.41504 -4.101006,1.55932 -3.507949,6.07591 0.700301,4.33104 0.707276,0.39412 3.374965,1.39095 -3.230722,12.05689 -3.618408,-0.48314 -0.809694,-0.0124 -2.771716,3.40072 v 7.01589 l 2.771716,3.40071 0.809693,-0.0124 3.618408,-0.4826 3.230721,12.05635 -3.374964,1.39097 -0.707276,0.39411 -0.700301,4.33157 3.507949,6.07537 4.101005,1.55933 0.69494,-0.41503 2.892366,-2.22799 8.825635,8.82617 -2.227455,2.89237 -0.415033,0.69493 1.559326,4.10102 6.075366,3.50741 4.331576,-0.69977 0.394122,-0.70728 1.390954,-3.37495 12.056357,3.23071 -0.482599,3.61842 -0.01233,0.80969 3.400714,2.77173 h 7.0159 l 3.4007,-2.77173 -0.0124,-0.80969 -0.48314,-3.61842 12.05689,-3.23071 1.39096,3.37495 0.39412,0.70728 4.33103,0.69977 6.07591,-3.50741 1.55933,-4.10102 -0.41557,-0.69493 -2.22745,-2.89237 8.82617,-8.82617 2.89237,2.22799 0.69493,0.41503 4.10102,-1.55933 3.50739,-6.07537 -0.69976,-4.33157 -0.70727,-0.39411 -3.37496,-1.39097 3.23019,-12.05635 3.61893,0.4826 0.80916,0.0124 2.77173,-3.40071 v -7.01589 l -2.77173,-3.4007 -0.80916,0.0123 -3.61893,0.48314 -3.23019,-12.05689 3.37496,-1.39095 0.70727,-0.39412 0.69976,-4.33104 -3.50739,-6.07591 -4.10102,-1.55933 -0.69493,0.41505 -2.89237,2.22798 -8.82617,-8.82618 2.22745,-2.89236 0.41557,-0.69493 -1.55933,-4.10103 -6.07591,-3.507407 -4.33103,0.699777 -0.39412,0.70728 -1.39096,3.37496 -12.05689,-3.23019 0.48314,-3.618953 0.0124,-0.809154 -3.4007,-2.771729 z m 3.50795,40.019675 a 15.228836,15.228836 0 0 1 15.22863,15.22862 15.228836,15.228836 0 0 1 -15.22863,15.22863 15.228836,15.228836 0 0 1 -15.22918,-15.22863 15.228836,15.228836 0 0 1 15.22918,-15.22862 z"
       style="opacity:0.38200001;vector-effect:none;fill:#232323;fill-opacity:1;stroke:none;stroke-width:1.52288353;stroke-linecap:butt;stroke-linejoin:miter;stroke-miterlimit:4;stroke-dasharray:none;stroke-dashoffset:0;stroke-opacity:1;filter:url(#filter7006)" />
    <path
       inkscape:connector-curvature="0"
       id="path6767"
       d="m 101.61958,95.255959 -3.277312,2.671157 0.01188,0.779796 0.465088,3.487638 -11.618928,3.11299 -1.340488,-3.25251 -0.379822,-0.68161 -4.174421,-0.67438 -5.854938,3.38015 -1.502751,3.95222 0.399976,0.66972 2.146638,2.78743 -8.505425,8.50594 -2.787425,-2.14715 -0.669726,-0.39998 -3.952214,1.50275 -3.380673,5.85546 0.674893,4.1739 0.681615,0.37982 3.252514,1.34049 -3.113505,11.61944 -3.487126,-0.4656 -0.780315,-0.0119 -2.671153,3.27732 v 6.76134 l 2.671153,3.27732 0.780315,-0.0119 3.487126,-0.46509 3.113505,11.61893 -3.252514,1.34049 -0.681615,0.37982 -0.674893,4.17442 3.380673,5.85494 3.952214,1.50275 0.669726,-0.39997 2.787425,-2.14716 8.505425,8.50594 -2.146638,2.78743 -0.399976,0.66972 1.502751,3.95222 5.854938,3.38015 4.174421,-0.67437 0.379822,-0.68162 1.340488,-3.25251 11.618928,3.1135 -0.465088,3.48713 -0.01188,0.78031 3.277312,2.67116 h 6.76135 l 3.27732,-2.67116 -0.0119,-0.78031 -0.46561,-3.48713 11.61945,-3.1135 1.34049,3.25251 0.37982,0.68162 4.1739,0.67437 5.85546,-3.38015 1.50275,-3.95222 -0.40049,-0.66972 -2.14664,-2.78743 8.50594,-8.50594 2.78743,2.14716 0.66972,0.39997 3.95222,-1.50275 3.38015,-5.85494 -0.67438,-4.17442 -0.68161,-0.37982 -3.25251,-1.34049 3.11299,-11.61893 3.48764,0.46509 0.77979,0.0119 2.67116,-3.27732 v -6.76134 l -2.67116,-3.27732 -0.77979,0.0119 -3.48764,0.4656 -3.11299,-11.61944 3.25251,-1.34049 0.68161,-0.37982 0.67438,-4.1739 -3.38015,-5.85546 -3.95222,-1.50275 -0.66972,0.39998 -2.78743,2.14715 -8.50594,-8.50594 2.14664,-2.78743 0.40049,-0.66972 -1.50275,-3.95222 -5.85546,-3.38015 -4.1739,0.67438 -0.37982,0.68161 -1.34049,3.25251 -11.61945,-3.11299 0.46561,-3.487638 0.0119,-0.779796 -3.27732,-2.671157 z m 3.38068,38.567671 a 14.676305,14.676305 0 0 1 14.6761,14.67611 14.676305,14.676305 0 0 1 -14.6761,14.6761 14.676305,14.676305 0 0 1 -14.676624,-14.6761 14.676305,14.676305 0 0 1 14.676624,-14.67611 z"
       style="opacity:1;vector-effect:none;fill:url(#radialGradient6830);fill-opacity:1;stroke:#f4f4f4;stroke-width:0.40000001;stroke-linecap:butt;stroke-linejoin:miter;stroke-miterlimit:4;stroke-dasharray:none;stroke-dashoffset:0;stroke-opacity:1" />
    <path
       style="color:#000000;clip-rule:nonzero;display:inline;overflow:visible;visibility:visible;opacity:1;isolation:auto;mix-blend-mode:normal;color-interpolation:sRGB;color-interpolation-filters:linearRGB;solid-color:#000000;solid-opacity:1;vector-effect:none;fill:url(#radialGradient6840);fill-opacity:1;fill-rule:nonzero;stroke:none;stroke-width:5.82637072;stroke-linecap:butt;stroke-linejoin:miter;stroke-miterlimit:4;stroke-dasharray:none;stroke-dashoffset:0;stroke-opacity:1;paint-order:markers fill stroke;color-rendering:auto;image-rendering:auto;shape-rendering:auto;text-rendering:auto;enable-background:accumulate"
       d="m 104.99981,106.23855 a 42.261505,42.261505 0 0 0 -42.261428,42.26143 42.261505,42.261505 0 0 0 42.261428,42.26142 42.261505,42.261505 0 0 0 42.26191,-42.26142 42.261505,42.261505 0 0 0 -42.26191,-42.26143 z m 4.9e-4,28.53987 a 13.721741,13.721741 0 0 1 13.72156,13.72156 13.721741,13.721741 0 0 1 -13.72156,13.72155 13.721741,13.721741 0 0 1 -13.722036,-13.72155 13.721741,13.721741 0 0 1 13.722036,-13.72156 z"
       id="path6832"
       inkscape:connector-curvature="0" />
    <path
       style="fill:url(#radialGradient6822);fill-opacity:1;stroke:none;stroke-width:3.53451633"
       d="m 104.99982,113.15491 a 35.345163,35.345163 0 0 0 -35.34507,35.34507 35.345163,35.345163 0 0 0 35.34507,35.34507 35.345163,35.345163 0 0 0 35.34553,-35.34507 35.345163,35.345163 0 0 0 -35.34553,-35.34507 z m 0,15.21361 a 20.131477,20.131477 0 0 1 20.13146,20.13146 20.131477,20.131477 0 0 1 -20.13146,20.13145 20.131477,20.131477 0 0 1 -20.131459,-20.13145 20.131477,20.131477 0 0 1 20.131459,-20.13146 z"
       id="path6769-3-7"
       inkscape:connector-curvature="0" />
  </g>
</svg>
